<svg enable-background="new 0 0 252.066 252.066" height="252.066" viewBox="0 0 252.066 252.066" width="252.066" xmlns="http://www.w3.org/2000/svg"><g fill="#fff"><path d="m188.31 59.416h-124.553c-3.158 0-5.728 2.563-5.728 5.729 0 3.146 2.566 5.727 5.728 5.727h7.265v112.898c0 3.229 1.771 6.165 4.756 7.854 2.606 1.374 6.498 1.188 8.955-.499l10.389-6.92 10.424 6.951c2.807 1.848 7.031 1.848 9.79 0l10.39-6.903 10.306 6.835c2.825 1.979 7.127 1.984 9.926.083l10.362-6.918 10.374 6.903c2.584 1.762 6.051 2.026 9.127.468 2.863-1.521 4.658-4.519 4.658-7.812l-.048-112.942h7.882c3.15 0 5.728-2.581 5.728-5.727-.003-3.163-2.577-5.727-5.731-5.727zm-32.01 111.072-15.257 10.191-15.337-10.191-15.265 10.172-15.322-10.204-12.646 8.421v-108.009h86.498l.045 108.083z"/><path d="m95.49 152.942h45.814v7.636h-45.814z"/><path d="m95.863 138.241h37.807v7.634h-37.807z"/><path d="m95.863 114.774h45.442v7.638h-45.442z"/><path d="m95.49 99.501h38.179v7.639h-38.179z"/><path d="m141.304 99.501h15.465v7.639h-15.465z"/><path d="m141.304 138.241h15.465v7.634h-15.465z"/><path d="m148.939 114.639h7.83v7.636h-7.83z"/><path d="m148.939 152.929h7.83v7.634h-7.83z"/><path d="m95.49 84.231h45.814v7.637h-45.814z"/><path d="m148.939 84.231h7.83v7.637h-7.83z"/><path d="m68.765 232.833h-7.682l-1.73 4.724h-2.529l7.084-18.319h2.127l6.971 18.319h-2.523zm-6.908-2.076h6.166l-3.021-8.342h-.076z"/><path d="m86.683 231.26c0 1.964-.478 3.547-1.416 4.75-.943 1.198-2.241 1.806-3.896 1.806-.896 0-1.679-.174-2.341-.521s-1.212-.856-1.648-1.541l-.302 1.804h-2.021v-19.634h2.479v7.625c.428-.604.958-1.062 1.592-1.385.637-.312 1.374-.479 2.227-.479 1.678 0 2.98.672 3.926 2.014.938 1.343 1.409 3.108 1.409 5.298zm-2.479-.264c0-1.561-.287-2.833-.861-3.814-.569-.984-1.443-1.479-2.624-1.479-.764 0-1.401.188-1.932.562-.521.368-.938.873-1.252 1.505v5.896c.319.672.735 1.195 1.252 1.573.521.378 1.168.565 1.956.565 1.166 0 2.035-.414 2.605-1.244.564-.831.854-1.936.854-3.298z"/><path d="m96.146 226.126-1.271-.07c-.648 0-1.205.15-1.648.467-.449.311-.801.746-1.038 1.309v9.729h-2.48v-13.62h2.215l.239 1.987c.386-.704.862-1.259 1.429-1.647.567-.395 1.224-.592 1.956-.592.188 0 .36.016.528.045s.307.061.416.094z"/><path d="m103.947 237.815c-1.896 0-3.403-.631-4.523-1.896-1.113-1.264-1.68-2.896-1.68-4.914v-.554c0-1.938.576-3.55 1.73-4.839 1.147-1.287 2.519-1.932 4.096-1.932 1.837 0 3.225.555 4.165 1.659.938 1.104 1.409 2.584 1.409 4.432v1.548h-8.834l-.037.062c.021 1.311.354 2.384.994 3.225.637.841 1.525 1.262 2.68 1.262.84 0 1.575-.12 2.209-.359.633-.232 1.18-.562 1.642-.982l.976 1.607c-.487.48-1.129.888-1.932 1.203-.798.318-1.763.478-2.895.478zm-.377-12.18c-.83 0-1.539.351-2.127 1.048-.587.692-.947 1.568-1.082 2.627l.021.062h6.279v-.326c0-.97-.261-1.774-.781-2.433-.515-.651-1.287-.978-2.31-.978z"/><path d="m117.461 235.866c.821 0 1.546-.254 2.171-.762s.938-1.131.938-1.869h2.227l.025.076c.042 1.174-.48 2.219-1.566 3.133-1.087.914-2.352 1.371-3.794 1.371-1.979 0-3.494-.646-4.542-1.938-1.049-1.291-1.567-2.914-1.567-4.869v-.523c0-1.938.521-3.561 1.573-4.854 1.059-1.297 2.564-1.939 4.536-1.939 1.6 0 2.896.471 3.907 1.409s1.499 2.094 1.466 3.461l-.021.069h-2.24c0-.83-.294-1.537-.881-2.114-.588-.584-1.33-.875-2.229-.875-1.3 0-2.229.468-2.787 1.396-.558.938-.837 2.079-.837 3.438v.524c0 1.396.277 2.555.83 3.479.552.924 1.483 1.387 2.791 1.387z"/><path d="m128.082 225.761c.469-.655 1.047-1.164 1.73-1.529.684-.364 1.438-.548 2.27-.548 1.451 0 2.582.438 3.396 1.31.809.872 1.215 2.214 1.215 4.026v8.525h-2.48v-8.557c0-1.124-.238-1.954-.725-2.491-.482-.536-1.201-.806-2.158-.806-.688 0-1.311.162-1.867.483-.557.318-1.018.763-1.379 1.312v10.054h-2.478v-19.629h2.478v7.849h-.002z"/><path d="m142.465 223.936.182 2.021c.447-.722 1.02-1.275 1.705-1.68.684-.399 1.461-.599 2.334-.599 1.467 0 2.604.431 3.404 1.291.811.854 1.207 2.188 1.207 3.979v8.594h-2.479v-8.542c0-1.193-.236-2.051-.711-2.554-.48-.504-1.197-.756-2.17-.756-.713 0-1.352.172-1.896.516-.549.351-.982.814-1.312 1.41v9.928h-2.479v-13.609z"/><path d="m163.541 235.538c-.428.73-.979 1.293-1.646 1.688-.67.394-1.447.591-2.328.591-1.484 0-2.646-.474-3.479-1.422-.83-.947-1.24-2.424-1.24-4.435v-8.022h2.479v8.054c0 1.451.215 2.449.643 2.995.434.545 1.1.817 2 .817.887 0 1.609-.185 2.188-.534.574-.357 1.01-.862 1.303-1.521v-9.812h2.48v13.614h-2.23z"/><path d="m171.758 223.936.182 2.021c.449-.722 1.02-1.275 1.705-1.68.684-.399 1.461-.599 2.334-.599 1.469 0 2.604.431 3.404 1.291.811.854 1.207 2.188 1.207 3.979v8.594h-2.479v-8.542c0-1.193-.236-2.051-.711-2.554-.479-.504-1.197-.756-2.17-.756-.713 0-1.35.172-1.896.516-.549.351-.98.814-1.311 1.41v9.928h-2.48v-13.609z"/><path d="m183.648 230.996c0-2.188.479-3.955 1.434-5.298.957-1.342 2.277-2.014 3.965-2.014.863 0 1.623.175 2.277.521.654.354 1.199.854 1.635 1.503l.305-1.771h1.979v13.688c0 1.744-.506 3.084-1.521 4.021-1.016.936-2.479 1.396-4.393 1.396-.654 0-1.359-.09-2.119-.27-.76-.183-1.428-.426-2.008-.736l.629-1.926c.445.252.982.455 1.611.611.629.148 1.25.229 1.857.229 1.207 0 2.086-.271 2.641-.823.551-.551.818-1.388.818-2.511v-1.535c-.438.57-.977 1-1.598 1.289s-1.334.438-2.139.438c-1.67 0-2.982-.604-3.939-1.812-.955-1.208-1.434-2.789-1.434-4.743zm2.479.264c0 1.362.289 2.467.869 3.298.578.83 1.459 1.244 2.646 1.244.74 0 1.365-.175 1.873-.515.504-.34.92-.813 1.24-1.438v-6.271c-.312-.579-.729-1.038-1.24-1.378-.518-.34-1.133-.51-1.854-.51-1.184 0-2.062.496-2.656 1.484-.586.984-.881 2.262-.881 3.812z"/></g></svg>