<svg enable-background="new 0 0 252.066 252.066" height="252.066" viewBox="0 0 252.066 252.066" width="252.066" xmlns="http://www.w3.org/2000/svg"><g fill="#fff"><path d="m183.17 180.856-4.625 4.551-1.12.875c-2.356 1.841-5.01 3.333-7.86 4.454-2.631 1.017-5.253 1.677-8.016 2.015-.217.021-.981.09-2.25.09-7.421 0-34.132-2.501-66.083-34.44-26.954-26.95-36.896-46.729-34.301-68.274.294-2.63.938-5.242 2-8.009 1.129-2.884 2.613-5.53 4.467-7.89l.455-.764 4.94-4.957c1.728-1.723 4.157-2.724 6.668-2.724 2.404 0 4.577.877 6.145 2.438l20.113 20.112c3.44 3.454 3.322 9.203-.27 12.813l-10.893 10.876 1.604 2.866c3.588 6.479 8.497 15.354 17.895 24.728 9.341 9.366 18.202 14.273 24.657 17.854l2.926 1.617 10.896-10.854c1.699-1.72 4.129-2.707 6.657-2.707 2.4 0 4.576.862 6.146 2.432l20.108 20.111c3.452 3.451 3.326 9.205-.259 12.787z"/><path d="m163.32 147.955c-1.565-1.564-3.745-2.431-6.146-2.431-2.528 0-4.958.981-6.657 2.706l-10.896 10.854-2.926-1.619c-6.454-3.576-15.313-8.483-24.657-17.854-9.396-9.368-14.307-18.245-17.896-24.729l-1.604-2.864 10.895-10.872c3.591-3.61 3.71-9.359.27-12.813l-20.114-20.114c-1.564-1.562-3.739-2.438-6.145-2.438-2.512 0-4.941 1.003-6.668 2.723l-4.94 4.958-.455.763c-1.854 2.356-3.338 5.007-4.467 7.891-1.062 2.765-1.704 5.378-2 8.009-2.597 21.549 7.345 41.326 34.301 68.273 31.952 31.94 58.663 34.442 66.083 34.442 1.269 0 2.033-.069 2.25-.092 2.763-.34 5.384-.998 8.016-2.017 2.854-1.119 5.504-2.611 7.86-4.451l1.12-.877 4.625-4.55c3.585-3.58 3.711-9.334.257-12.789z"/><path d="m142.042 110.76c-4.383-4.366-9.896-7.521-15.892-9.091l-2.083-.556v9.651c4.3 1.188 8.247 3.432 11.383 6.574 3.142 3.137 5.419 7.062 6.627 11.354l.006.031h9.587l-.277-1.167c-1.52-6.378-4.758-12.195-9.351-16.796z"/><path d="m126.135 81.304-2.067-.336v9.445l1.552.312c9.171 1.703 17.441 6.02 23.93 12.511 6.976 6.954 11.291 15.764 12.782 25.489h9.341c-1.552-12.309-6.826-23.395-15.512-32.103-8.143-8.108-18.512-13.412-30.026-15.318z"/><path d="m124.069 59.225v9.354c15.453 1.601 29.877 8.355 40.818 19.314 10.899 10.904 17.673 25.35 19.271 40.833h9.393c-1.615-17.953-9.425-34.779-22.065-47.427-12.744-12.7-29.48-20.446-47.417-22.074z"/><path d="m106.206 233.097h-7.682l-1.73 4.719h-2.529l7.084-18.32h2.127l6.971 18.32h-2.523zm-6.908-2.076h6.166l-3.021-8.342h-.076z"/><path d="m114.712 224.201.176 2.026c.453-.728 1.021-1.281 1.705-1.686.684-.396 1.463-.599 2.335-.599 1.468 0 2.604.431 3.409 1.291.807.859 1.209 2.188 1.209 3.98v8.596h-2.479v-8.544c0-1.199-.231-2.054-.711-2.56-.474-.504-1.197-.756-2.171-.756-.713 0-1.344.172-1.893.521-.557.345-.988.812-1.315 1.407v9.931h-2.479v-13.608z"/><path d="m133.588 226.39-1.271-.075c-.648 0-1.205.155-1.648.466-.449.312-.801.746-1.039 1.309v9.729h-2.479v-13.615h2.215l.238 1.988c.387-.705.863-1.254 1.43-1.648.566-.394 1.223-.592 1.955-.592.189 0 .361.021.529.045.168.029.307.062.416.094z"/><path d="m144.623 235.802c-.434.729-.98 1.294-1.648 1.688-.67.396-1.447.591-2.328.591-1.479 0-2.643-.473-3.473-1.422-.83-.947-1.246-2.424-1.246-4.429v-8.028h2.479v8.054c0 1.451.219 2.449.646 2.995.428.545 1.094.817 2 .817.881 0 1.604-.179 2.184-.534.574-.354 1.012-.862 1.307-1.518v-9.814h2.479v13.615h-2.227z"/><path d="m151.654 237.816v-11.777h-2.125v-1.838h2.125v-1.724c0-1.451.381-2.573 1.145-3.366.76-.793 1.812-1.188 3.178-1.188.285 0 .572.022.863.069.289.046.604.111.961.195l-.303 1.887c-.15-.033-.338-.062-.551-.088-.215-.026-.438-.037-.674-.037-.723 0-1.258.215-1.605.647-.354.433-.527 1.06-.527 1.881v1.724h2.83v1.838h-2.83v11.777z"/></g></svg>