<svg enable-background="new 0 0 252.066 252.066" height="252.066" viewBox="0 0 252.066 252.066" width="252.066" xmlns="http://www.w3.org/2000/svg"><g fill="#fff"><path d="m84.303 176.107h83.453v16.688h-83.453z"/><path d="m120.686 151.054h-58.419v-75.094h58.419v-16.693h-58.419c-9.226 0-16.691 7.476-16.691 16.688v75.1c0 9.217 7.473 16.688 16.691 16.688h58.419z"/><path d="m189.797 59.267h-58.417v16.688h58.417v75.1h-58.417v16.688h58.417c9.226 0 16.693-7.477 16.693-16.688v-75.095c0-9.218-7.475-16.693-16.693-16.693z"/><path d="m125.361 83.239c-4.688 0-8.729 2.661-10.812 6.521-.931 1.739-1.507 3.684-1.507 5.786 0 2.296.677 4.434 1.771 6.277 1.379 2.302 3.457 4.125 5.977 5.139 1.381.545 2.879.869 4.455.887.035 0 .082-.009.111-.009.039 0 .08.009.113.009 1.571-.011 3.069-.333 4.444-.887 2.527-1.005 4.603-2.823 5.986-5.114 1.106-1.85 1.783-3.99 1.783-6.295 0-2.108-.575-4.051-1.506-5.784-2.086-3.871-6.119-6.53-10.815-6.53z"/><path d="m125.477 112.286c-.033 0-.072.009-.112.009-.035 0-.078-.009-.112-.009-2.877.009-5.61.333-8.186.841-3.533.71-6.736 1.779-9.334 3.246-1.29.717-2.425 1.524-3.412 2.391-2.498 2.19-3.965 4.791-3.965 7.584v12.547h3.827 4.644 5.342 2.32 2.943 11.862 2.943 2.053c-1.834-3.021-2.91-6.554-2.91-10.338 0-5.417 2.173-10.331 5.68-13.938-1.684-.605-3.496-1.108-5.415-1.49-2.575-.512-5.299-.836-8.168-.843z"/><path d="m153.395 144.263c8.677 0 15.709-7.034 15.709-15.708 0-8.679-7.032-15.712-15.709-15.712-3.859 0-7.39 1.398-10.125 3.707-3.412 2.883-5.584 7.188-5.584 12.005 0 3.962 1.479 7.573 3.901 10.338 2.882 3.285 7.096 5.37 11.808 5.37zm1.713-5.71h-4.551v-3.656h4.551zm-7.109-18.172c.138-.138.255-.29.413-.412 1.225-.942 2.837-1.414 4.84-1.414 2.149 0 3.841.541 5.071 1.623 1.232 1.085 1.852 2.546 1.852 4.389 0 1.127-.338 2.166-1.01 3.115-.673.946-1.528 1.692-2.566 2.231-.578.38-.971.787-1.174 1.228-.201.437-.305 1.029-.305 1.779h-4.574c.009-1.256.234-2.198.677-2.83.44-.632 1.25-1.358 2.424-2.18.604-.38 1.081-.85 1.43-1.409.346-.559.521-1.206.521-1.936 0-.759-.203-1.363-.608-1.815-.406-.451-.985-.677-1.735-.677-.603 0-1.109.185-1.515.555s-.618.921-.637 1.652h-.99-3.465l-.026-.082c-.026-1.632.453-2.891 1.377-3.817z"/><path d="m19.506 202.3c.822-1.114 1.925-1.672 3.31-1.672 1.375 0 2.441.373 3.196 1.12s1.132 1.761 1.132 3.045h2.378l.025-.075c.034-1.82-.562-3.282-1.787-4.386-1.225-1.103-2.873-1.654-4.945-1.654s-3.761.735-5.065 2.208c-1.305 1.473-1.957 3.337-1.957 5.594v3.259c0 2.257.652 4.118 1.957 5.587 1.304 1.468 2.993 2.201 5.065 2.201 2.038 0 3.678-.58 4.92-1.742 1.241-1.162 1.845-2.603 1.812-4.322l-.025-.076h-2.378c0 1.309-.377 2.335-1.132 3.077-.755.743-1.82 1.114-3.196 1.114-1.384 0-2.487-.559-3.31-1.673s-1.233-2.506-1.233-4.174v-3.281c0-1.652.41-3.035 1.233-4.15z"/><path d="m37.927 203.395c-1.871 0-3.352.652-4.442 1.957-1.091 1.305-1.636 2.964-1.636 4.977v.277c0 2.021.547 3.68 1.642 4.977 1.095 1.296 2.582 1.943 4.46 1.943s3.364-.646 4.455-1.938c1.09-1.291 1.636-2.953 1.636-4.982v-.277c0-2.021-.547-3.682-1.642-4.982s-2.585-1.952-4.473-1.952zm3.637 7.204c0 1.441-.306 2.632-.918 3.569-.612.938-1.51 1.408-2.693 1.408-1.2 0-2.104-.47-2.711-1.408-.608-.938-.913-2.128-.913-3.569v-.276c0-1.424.304-2.609.913-3.557.608-.947 1.503-1.42 2.687-1.42 1.191 0 2.095.473 2.711 1.42s.925 2.133.925 3.557v.276z"/><path d="m61.508 203.395c-.939 0-1.761.227-2.466.68s-1.271 1.066-1.699 1.838c-.327-.839-.816-1.469-1.466-1.888s-1.428-.63-2.334-.63-1.701.18-2.385.535c-.684.357-1.248.857-1.692 1.504l-.176-1.787h-2.215v13.615h2.479v-10.079c.26-.562.633-.998 1.12-1.309.487-.31 1.107-.466 1.862-.466.889 0 1.571.296 2.045.887.474.592.711 1.525.711 2.801v8.166h2.491v-8.645-.101c.092-.897.401-1.64.925-2.228.524-.587 1.21-.881 2.058-.881.914 0 1.602.279 2.063.837s.692 1.509.692 2.851v8.166h2.479v-8.141c0-1.913-.402-3.346-1.208-4.298-.805-.95-1.9-1.427-3.284-1.427z"/><path d="m75.865 203.395c-.881 0-1.653.173-2.315.517-.663.345-1.216.843-1.661 1.497l-.39-1.762h-1.9v18.85h2.479v-6.656c.444.562.983.983 1.617 1.265.633.28 1.37.421 2.208.421 1.652 0 2.949-.602 3.888-1.805.939-1.204 1.409-2.787 1.409-4.75v-.265c0-2.198-.468-3.966-1.403-5.304s-2.246-2.008-3.932-2.008zm2.856 7.569c0 1.357-.302 2.466-.906 3.324-.604.859-1.493 1.289-2.667 1.289-.73 0-1.347-.158-1.85-.472s-.91-.752-1.22-1.313v-6.572c.31-.562.717-1.004 1.22-1.326s1.112-.484 1.825-.484c1.183 0 2.078.496 2.687 1.49.608.992.912 2.26.912 3.801v.263z"/><path d="m92.802 213.462c-.294.655-.728 1.16-1.302 1.518-.575.355-1.303.534-2.184.534-.906 0-1.573-.272-2-.817-.428-.546-.642-1.544-.642-2.995v-8.054h-2.479v8.028c0 2.005.415 3.481 1.246 4.429.831.949 1.988 1.422 3.473 1.422.881 0 1.657-.197 2.328-.591s1.221-.956 1.648-1.687l.164 2.014h2.227v-13.615h-2.479z"/><path d="m104.082 215.438c-.172.033-.329.05-.472.05-.437 0-.787-.13-1.051-.39s-.396-.709-.396-1.347v-8.267h2.58v-1.838h-2.58v-3.283h-2.479v3.283h-2.164v1.838h2.165v8.267c0 1.3.297 2.255.893 2.862.596.609 1.397.912 2.403.912.361 0 .719-.048 1.076-.145.356-.096.627-.22.812-.371l-.327-1.698c-.135.051-.288.094-.46.127z"/><path d="m113.073 203.395c-1.577 0-2.942.645-4.096 1.932-1.154 1.289-1.73 2.9-1.73 4.839v.554c0 2.014.56 3.65 1.68 4.914 1.12 1.262 2.627 1.893 4.523 1.893 1.132 0 2.097-.16 2.894-.48.797-.321 1.438-.723 1.925-1.203l-.969-1.613c-.461.42-1.009.75-1.642.988-.633.239-1.369.359-2.208.359-1.149 0-2.043-.421-2.68-1.262-.638-.841-.969-1.914-.994-3.219l.038-.062h8.833v-1.548c0-1.845-.47-3.321-1.409-4.429-.94-1.108-2.328-1.663-4.165-1.663zm3.095 5.689h-6.279l-.025-.063c.134-1.053.495-1.929 1.083-2.627.587-.697 1.296-1.047 2.126-1.047 1.023 0 1.795.326 2.315.979s.78 1.463.78 2.433z"/><path d="m127.266 203.395c-.738 0-1.39.197-1.957.592-.566.395-1.042.943-1.428 1.648l-.239-1.988h-2.215v13.615h2.479v-9.727c.243-.562.589-.998 1.038-1.309s1-.466 1.654-.466l1.271.075.34-2.303c-.109-.033-.248-.064-.416-.094s-.342-.043-.527-.043z"/><path d="m136.527 203.395c-.881 0-1.652.173-2.315.517-.662.345-1.216.843-1.66 1.497l-.391-1.762h-1.899v18.85h2.479v-6.656c.444.562.983.983 1.617 1.265.633.28 1.369.421 2.208.421 1.652 0 2.948-.602 3.888-1.805.939-1.204 1.41-2.787 1.41-4.75v-.265c0-2.198-.468-3.966-1.403-5.304s-2.247-2.008-3.934-2.008zm2.857 7.569c0 1.357-.302 2.466-.906 3.324-.604.859-1.493 1.289-2.667 1.289-.729 0-1.347-.158-1.85-.472-.504-.314-.91-.752-1.221-1.313v-6.572c.311-.562.717-1.004 1.221-1.326.503-.322 1.111-.484 1.824-.484 1.183 0 2.078.496 2.687 1.49.608.992.912 2.26.912 3.801z"/><path d="m150.746 203.395c-.738 0-1.391.197-1.956.592-.566.395-1.043.943-1.429 1.648l-.239-1.988h-2.214v13.615h2.479v-9.727c.243-.562.589-.998 1.038-1.309.448-.311 1-.466 1.654-.466l1.271.075.34-2.303c-.109-.033-.248-.064-.416-.094s-.344-.043-.528-.043z"/><path d="m158.988 203.395c-1.87 0-3.352.652-4.441 1.957-1.091 1.305-1.636 2.964-1.636 4.977v.277c0 2.021.547 3.68 1.642 4.977 1.095 1.296 2.582 1.943 4.461 1.943s3.364-.646 4.454-1.938c1.091-1.291 1.636-2.953 1.636-4.982v-.277c0-2.021-.547-3.682-1.642-4.982s-2.586-1.952-4.474-1.952zm3.637 7.204c0 1.441-.307 2.632-.919 3.569-.612.938-1.51 1.408-2.692 1.408-1.199 0-2.104-.47-2.712-1.408s-.912-2.128-.912-3.569v-.276c0-1.424.304-2.609.912-3.557s1.504-1.42 2.687-1.42c1.191 0 2.096.473 2.712 1.42s.925 2.133.925 3.557v.276z"/><path d="m174.427 203.395c-.848 0-1.588.16-2.221.479-.634.319-1.164.78-1.592 1.385v-7.625h-2.479v19.629h2.025l.302-1.799c.437.679.986 1.193 1.648 1.541.663.348 1.443.521 2.341.521 1.652 0 2.95-.602 3.895-1.805.943-1.204 1.415-2.787 1.415-4.75v-.265c0-2.189-.47-3.955-1.409-5.298-.938-1.341-2.247-2.013-3.925-2.013zm2.857 7.576c0 1.367-.285 2.466-.855 3.297-.57.83-1.439 1.245-2.604 1.245-.789 0-1.441-.188-1.957-.566s-.934-.901-1.252-1.573v-5.9c.311-.63.728-1.131 1.252-1.504s1.168-.561 1.932-.561c1.174 0 2.049.493 2.623 1.479.575.986.862 2.259.862 3.819v.264z"/><path d="m182.984 197.634h2.479v19.629h-2.479z"/><path d="m194.548 203.395c-1.577 0-2.942.645-4.096 1.932-1.153 1.289-1.729 2.9-1.729 4.839v.554c0 2.014.56 3.65 1.68 4.914 1.12 1.262 2.628 1.893 4.523 1.893 1.133 0 2.097-.16 2.894-.48.797-.321 1.439-.723 1.926-1.203l-.969-1.613c-.462.42-1.009.75-1.643.988-.633.239-1.369.359-2.208.359-1.149 0-2.043-.421-2.681-1.262-.637-.841-.969-1.914-.993-3.219l.037-.062h8.833v-1.548c0-1.845-.47-3.321-1.409-4.429s-2.328-1.663-4.165-1.663zm3.095 5.689h-6.279l-.024-.063c.134-1.053.494-1.929 1.082-2.627.587-.697 1.296-1.047 2.126-1.047 1.023 0 1.795.326 2.315.979s.78 1.463.78 2.433z"/><path d="m217.336 203.395c-.939 0-1.762.227-2.467.68-.704.453-1.271 1.066-1.698 1.838-.327-.839-.816-1.469-1.466-1.888s-1.429-.63-2.335-.63c-.905 0-1.7.18-2.384.535-.684.357-1.248.857-1.692 1.504l-.177-1.787h-2.214v13.615h2.479v-10.079c.26-.562.633-.998 1.12-1.309.486-.31 1.107-.466 1.862-.466.889 0 1.57.296 2.044.887.475.592.711 1.525.711 2.801v8.166h2.492v-8.645-.101c.092-.897.4-1.64.925-2.228.523-.587 1.21-.881 2.057-.881.915 0 1.603.279 2.064.837s.691 1.509.691 2.851v8.166h2.479v-8.141c0-1.913-.403-3.346-1.208-4.298-.805-.95-1.9-1.427-3.283-1.427z"/><path d="m236.272 211.034v-1.548c0-1.845-.47-3.321-1.409-4.429s-2.327-1.662-4.165-1.662c-1.577 0-2.942.645-4.096 1.932-1.153 1.289-1.729 2.9-1.729 4.839v.554c0 2.014.56 3.65 1.68 4.914 1.12 1.262 2.628 1.893 4.523 1.893 1.133 0 2.097-.16 2.894-.48.797-.321 1.439-.723 1.926-1.203l-.969-1.613c-.462.42-1.009.75-1.643.988-.633.239-1.369.359-2.208.359-1.149 0-2.043-.421-2.681-1.262-.637-.841-.969-1.914-.993-3.219l.037-.062h8.833zm-7.7-4.641c.587-.697 1.296-1.047 2.126-1.047 1.023 0 1.795.326 2.315.979s.78 1.463.78 2.433v.326h-6.279l-.024-.063c.134-1.053.494-1.929 1.082-2.628z"/><path d="m109.292 229.964c-.831 0-1.588.183-2.271.547-.684.365-1.261.875-1.73 1.529v-7.84h-2.479v19.63h2.479v-10.054c.36-.554.82-.992 1.378-1.315.558-.322 1.181-.484 1.868-.484.957 0 1.676.269 2.158.806s.724 1.367.724 2.491v8.557h2.479v-8.531c0-1.812-.404-3.154-1.214-4.026-.811-.875-1.941-1.31-3.392-1.31z"/><path d="m117.659 224.2h2.479v2.529h-2.479z"/><path d="m117.659 230.215h2.479v13.615h-2.479z"/><path d="m129.222 229.964c-1.576 0-2.941.644-4.095 1.932-1.154 1.287-1.73 2.9-1.73 4.838v.554c0 2.013.56 3.651 1.68 4.913 1.12 1.263 2.628 1.895 4.524 1.895 1.133 0 2.096-.161 2.893-.481.797-.321 1.439-.722 1.926-1.203l-.969-1.612c-.461.419-1.008.748-1.643.987-.633.239-1.369.358-2.207.358-1.15 0-2.043-.42-2.681-1.261s-.969-1.913-.994-3.219l.037-.062h8.833v-1.548c0-1.846-.469-3.322-1.408-4.429-.939-1.109-2.328-1.662-4.166-1.662zm3.096 5.687h-6.278l-.025-.062c.134-1.054.495-1.93 1.083-2.628.586-.698 1.295-1.047 2.125-1.047 1.023 0 1.795.326 2.316.979.52.651.779 1.463.779 2.433z"/><path d="m143.416 229.964c-.738 0-1.391.197-1.956.591-.566.395-1.043.944-1.429 1.648l-.239-1.988h-2.213v13.615h2.478v-9.727c.243-.562.589-.998 1.038-1.309.448-.311 1-.466 1.654-.466l1.271.075.34-2.303c-.109-.033-.248-.064-.416-.094s-.344-.042-.528-.042z"/><path d="m146.762 225.509h2.479v12.307h-2.479z"/><path d="m146.762 241.262h2.492v2.567h-2.492z"/></g></svg>