<svg enable-background="new 0 0 247.025 53" height="53" viewBox="0 0 247.025 53" width="247.025" xmlns="http://www.w3.org/2000/svg"><g fill="#e31d18"><path d="m135.965 53v-8.752h7.504c.691 0 1.19.134 1.5.403.307.271.462.703.462 1.292v1.068c0 .422-.13.757-.388 1.008-.262.251-.633.405-1.12.468.503.065.891.246 1.168.538.27.291.407.672.407 1.143v1.117c0 .58-.215 1.013-.641 1.292-.422.283-1.07.423-1.934.423zm6.651-7.33h-4.647v2.09h4.647c.353 0 .6-.049.732-.143.138-.094.204-.255.204-.487v-.829c0-.225-.066-.387-.204-.482-.132-.099-.379-.149-.732-.149zm0 3.529h-4.647v2.229h4.647c.389 0 .646-.058.784-.173.132-.117.201-.323.201-.614v-.664c0-.289-.068-.493-.201-.608-.138-.113-.396-.17-.784-.17z"/><path d="m149.996 46.318c0-.795.148-1.34.446-1.633.299-.291.873-.438 1.726-.438h6.44c.849 0 1.425.146 1.721.438.298.293.446.838.446 1.633v4.611c0 .803-.148 1.347-.446 1.636-.296.288-.872.435-1.721.435h-6.44c-.854 0-1.427-.146-1.726-.435-.298-.289-.446-.833-.446-1.636zm2.035 5.033h6.718v-5.539h-6.718z"/><path d="m165.817 53v-8.752h5.627c1.607 0 2.843.376 3.705 1.123.865.752 1.297 1.818 1.297 3.199 0 .814-.169 1.551-.508 2.207-.335.654-.808 1.17-1.422 1.545-.38.237-.855.408-1.417.519-.569.105-1.293.159-2.176.159zm2.032-1.649h2.634c1.401 0 2.397-.215 2.98-.653.588-.436.879-1.156.879-2.161 0-.894-.242-1.571-.727-2.032-.487-.459-1.206-.692-2.157-.692h-3.609z"/><path d="m180.929 53v-8.752h8.958v1.49h-6.922v1.95h4.043v1.493h-4.043v2.169h7.004v1.65z"/><path d="m194.461 53v-8.752h1.386l6.165 5.16c.209.17.396.33.554.481.164.151.311.306.441.47-.033-.493-.059-.842-.064-1.045-.012-.205-.021-.36-.021-.471v-4.596h1.832v8.753h-1.392l-6.426-5.408c-.155-.138-.292-.263-.407-.37-.118-.113-.224-.227-.323-.341.026.27.049.527.062.765.014.241.023.449.023.625v4.729z"/><path d="m217.548 45.779h-5.73v1.879h5.458c.856 0 1.432.148 1.733.439.303.293.452.836.452 1.632v1.2c0 .796-.149 1.339-.452 1.632-.302.292-.877.438-1.733.438h-5.405c-.858 0-1.438-.146-1.739-.438-.301-.293-.449-.836-.449-1.632v-.24l1.795-.371v1.032h6.188v-1.995h-5.457c-.852 0-1.424-.146-1.725-.438-.296-.291-.445-.837-.445-1.63v-.969c0-.795.149-1.34.445-1.633.301-.291.873-.438 1.725-.438h4.967c.822 0 1.394.139 1.7.423.314.281.474.778.474 1.498v.182l-1.801.423v-.994z"/><path d="m224.43 53v-8.752h8.963v1.49h-6.925v1.95h4.045v1.493h-4.045v2.169h7.006v1.65z"/><path d="m237.981 53v-8.752h8.958v1.49h-6.924v1.95h4.044v1.493h-4.044v2.169h7.01v1.65z"/></g><path d="m122.668 17.408h-13.061v-17.408h-7.997v41.593h7.997v-17.407h13.061v17.407h7.504v-41.593h-7.504z" fill="#fff"/><path d="m135.965 0h7.995v41.593h-7.995z" fill="#fff"/><path d="m34.354 3.897v33.8c0 2.151 1.746 3.896 3.897 3.896h24.664v-7.125h-20.566v-27.342h20.567v-7.126h-24.665c-2.151 0-3.897 1.745-3.897 3.897z" fill="#fff"/><path d="m157.749 0h-7.994v37.697c0 2.151 1.745 3.896 3.897 3.896h24.663v-7.125h-20.566z" fill="#fff"/><path d="m247.025 7.126v-7.126h-24.664c-2.152 0-3.899 1.745-3.899 3.897v33.8c0 2.151 1.747 3.896 3.899 3.896h24.664v-7.125h-20.569v-10.282h20.569v-6.777h-20.569v-10.283z" fill="#fff"/><path d="m184.108 3.897v37.695h7.994v-17.406h20.567v-6.777h-20.567v-10.283h20.567v-7.126h-24.665c-2.15 0-3.896 1.745-3.896 3.897z" fill="#fff"/><path d="m24.661 0h-24.661v7.126h21.06v10.282h-17.163c-2.15 0-3.897 1.745-3.897 3.897v20.288h7.996v-17.407h16.666c2.154 0 3.9-1.744 3.9-3.898v-16.391c0-2.152-1.747-3.897-3.901-3.897z" fill="#fff"/><path d="m92.092 0h-24.664v7.126h20.567v27.342h-20.567v7.125h24.664c2.156 0 3.898-1.744 3.898-3.896v-33.8c0-2.152-1.742-3.897-3.898-3.897z" fill="#e31d18"/><path d="m62.404 13.25v4.78h-4.777v5.532h4.777v4.781h5.534v-4.781h4.779v-5.532h-4.779v-4.78z" fill="#e31d18"/><path d="m46.069 45.44h38.208v6.778h-38.208z" fill="#e31d18"/></svg>