<svg enable-background="new 373.848 93.059 104.518 103.211" height="103.211" viewBox="373.848 93.059 104.518 103.211" width="104.518" xmlns="http://www.w3.org/2000/svg"><path d="m467.956 196.221v-77.292c-8.511 0-15.41-6.898-15.41-15.409 0-.476.029-.943.071-1.408h-78.77v94.109z" fill="#0050ef"/><path d="m467.956 113.93c5.739 0 10.409-4.67 10.409-10.41s-4.67-10.41-10.409-10.41c-5.262 0-9.611 3.927-10.304 9.002-.062.461-.106.929-.106 1.408 0 5.74 4.67 10.41 10.41 10.41z" fill="#0050ef"/><g fill="#fff"><path d="m437.688 127.978h-8.131l.639 2.958c.044.205.05.428.019.704l-.065.567h5.424v36.819h-28.669v-36.819h5.421l-.062-.565c-.03-.278-.023-.503.02-.709l.639-2.956h-8.133c-1.165 0-2.112.949-2.112 2.115v41.049c0 1.165.948 2.115 2.112 2.115h32.898c1.165 0 2.114-.95 2.114-2.115v-41.049c.001-1.165-.948-2.114-2.114-2.114z"/><path d="m432.303 140.089h-10.963c-.887 0-1.606.719-1.606 1.604 0 .888.719 1.606 1.606 1.606h10.963c.89 0 1.606-.718 1.606-1.606 0-.885-.717-1.604-1.606-1.604z"/><path d="m432.303 149.936h-10.963c-.887 0-1.606.718-1.606 1.603 0 .887.719 1.607 1.606 1.607h10.963c.89 0 1.606-.721 1.606-1.607s-.717-1.603-1.606-1.603z"/><path d="m417.57 136.285c-.754-.469-1.742-.234-2.208.521l-3.05 4.933-.913-1.078c-.571-.678-1.581-.767-2.26-.193-.677.571-.765 1.583-.193 2.261l2.341 2.775c.306.362.754.571 1.227.571.039 0 .077-.004.117-.006.513-.038.977-.32 1.248-.758l4.212-6.82c.467-.753.233-1.741-.521-2.206z"/><circle cx="412.984" cy="151.54" r="2.407"/><path d="m432.303 159.563h-10.963c-.887 0-1.606.718-1.606 1.604 0 .885.719 1.604 1.606 1.604h10.963c.89 0 1.606-.72 1.606-1.604 0-.886-.717-1.604-1.606-1.604z"/><circle cx="412.984" cy="161.168" r="2.407"/><path d="m414.431 132.5h13.616c.332 0 .648-.149.858-.41.21-.258.289-.6.219-.926l-1.128-5.217c-.108-.507-.558-.869-1.077-.869h-11.359c-.519 0-.967.362-1.077.869l-1.128 5.217c-.07.326.012.668.22.926.208.26.524.41.856.41z"/><path d="m470.864 104.276h1.345v1.833h-1.345v2.575h-2.371v-2.575h-4.84l-.105-1.426 4.921-7.863h2.396v7.456zm-5.099 0h2.729v-4.277l-.049-.017-.188.335z"/></g></svg>