<svg enable-background="new 373.848 93.059 104.518 103.211" height="103.211" viewBox="373.848 93.059 104.518 103.211" width="104.518" xmlns="http://www.w3.org/2000/svg"><path d="m467.956 196.271v-77.392c-8.511 0-15.41-6.899-15.41-15.41 0-.441.031-.877.066-1.309h-78.765v94.11h94.109z" fill="#0050ef"/><path d="m467.956 113.879c5.74 0 10.409-4.67 10.409-10.41s-4.669-10.41-10.409-10.41c-5.295 0-9.672 3.979-10.318 9.102-.055.43-.092.864-.092 1.309 0 5.739 4.67 10.409 10.41 10.409z" fill="#0050ef"/><g fill="#fff"><path d="m469.178 109.47h-2.313v-9.489h-2.344v-1.631l4.657-.412z"/><path d="m438.594 128.42c-4.987-1.99-11.272-3.086-17.696-3.086-6.423 0-12.707 1.096-17.695 3.086-5.287 2.108-8.197 4.866-8.197 7.765v9.026c0 1.007.814 1.824 1.822 1.824h9.97c-.248.806-.685 1.414-1.308 1.812-.795.513-1.656.556-1.725.558-3.042.01-5.722 2.375-6.107 5.391l-1.592 12.455c-.191 1.517.252 3.018 1.224 4.119.97 1.103 2.403 1.734 3.931 1.734h39.357c1.527 0 2.96-.633 3.931-1.734.97-1.103 1.415-2.604 1.222-4.119l-1.592-12.455c-.386-3.022-3.076-5.391-6.123-5.391-.008 0-.818-.029-1.611-.498-.686-.406-1.152-1.025-1.408-1.873h9.975c1.008 0 1.824-.815 1.824-1.824v-9.025c-.004-2.898-2.916-5.656-8.202-7.765zm-4.05 23.626c1.652.979 3.288 1.007 3.47 1.007 1.185 0 2.354 1.03 2.507 2.206l1.592 12.457c.062.482-.061.925-.342 1.246-.283.32-.707.498-1.193.498h-39.358c-.487 0-.911-.178-1.192-.498-.283-.32-.404-.764-.343-1.248l1.593-12.455c.149-1.176 1.32-2.206 2.506-2.206.182 0 1.815-.028 3.47-1.007 1.305-.772 2.817-2.248 3.287-5.012h1.333c1.008 0 1.822-.815 1.822-1.824v-7.636c.604.007 1.404.079 2.324.161 1.367.121 3.067.272 4.879.272s3.512-.152 4.879-.272c.92-.083 1.724-.154 2.324-.161v7.636c0 1.008.816 1.824 1.823 1.824h1.333c.468 2.764 1.979 4.239 3.286 5.012zm-2.797-14.335c0-2.876-1.029-3.785-3.553-3.785-.772 0-1.687.082-2.742.175-1.362.122-2.906.26-4.555.26s-3.193-.138-4.555-.26c-1.059-.093-1.971-.175-2.744-.175-2.521 0-3.553.909-3.553 3.785v5.677h-11.395v-7.203c0-.814 1.571-2.65 5.901-4.377 4.503-1.796 10.46-2.825 16.345-2.825s11.844 1.029 16.346 2.825c4.33 1.727 5.902 3.564 5.902 4.377v7.203h-11.397z"/><path d="m420.897 146.396c-5.981 0-10.851 4.867-10.851 10.851 0 5.982 4.868 10.85 10.851 10.85s10.851-4.866 10.851-10.85c-.001-5.982-4.867-10.851-10.851-10.851zm0 18.054c-3.972 0-7.203-3.23-7.203-7.203 0-3.972 3.231-7.203 7.203-7.203 3.973 0 7.203 3.231 7.203 7.203.001 3.973-3.232 7.203-7.203 7.203z"/></g></svg>