<svg enable-background="new 0 0 252.066 252.066" height="252.066" viewBox="0 0 252.066 252.066" width="252.066" xmlns="http://www.w3.org/2000/svg"><g fill="#fff"><path d="m84.303 176.107h83.455v16.688h-83.455z"/><path d="m117.686 92.643v12.519h-12.518v16.69h12.518v12.519h16.694v-12.519h12.518v-16.69h-12.518v-12.519z"/><path d="m120.686 151.054h-58.419v-75.094h58.419v-16.693h-58.419c-9.224 0-16.691 7.476-16.691 16.688v75.098c0 9.218 7.473 16.689 16.691 16.689h58.419z"/><path d="m189.796 59.267h-58.416v16.688h58.416v75.098h-58.416v16.689h58.416c9.225 0 16.694-7.477 16.694-16.689v-75.093c0-9.218-7.475-16.693-16.694-16.693z"/><path d="m38.373 230.467v7.35h-2.479v-18.321h7.008c1.955 0 3.473.503 4.555 1.51s1.624 2.333 1.624 3.977c0 1.669-.542 3.001-1.624 3.995s-2.601 1.49-4.555 1.49h-4.529zm0-1.95h4.53c1.242 0 2.168-.334 2.781-.999.612-.666.918-1.505.918-2.519s-.308-1.859-.925-2.537-1.542-1.018-2.775-1.018h-4.53v7.073z"/><path d="m65.351 231.939.025.076c.034 1.719-.57 3.16-1.812 4.322s-2.882 1.742-4.92 1.742c-2.072 0-3.761-.734-5.065-2.202-1.305-1.468-1.957-3.33-1.957-5.587v-3.259c0-2.257.652-4.121 1.957-5.593 1.304-1.473 2.993-2.209 5.065-2.209s3.72.553 4.945 1.654c1.225 1.104 1.82 2.566 1.787 4.386l-.025.075h-2.378c0-1.283-.377-2.298-1.132-3.045-.755-.746-1.82-1.119-3.196-1.119-1.384 0-2.487.557-3.31 1.672s-1.233 2.498-1.233 4.148v3.281c0 1.668.411 3.06 1.233 4.174.822 1.115 1.925 1.673 3.31 1.673 1.375 0 2.441-.371 3.196-1.114.755-.742 1.132-1.768 1.132-3.076h2.378z"/><path d="m73.065 231.047h-6.166v-1.938h6.166z"/><path d="m89.636 237.816h-2.479v-8.092h-8.896v8.092h-2.479v-18.321h2.479v8.28h8.896v-8.28h2.479z"/><path d="m96.381 220.716h-2.479v-2.529h2.479zm0 17.1h-2.479v-13.615h2.479z"/><path d="m102.874 237.816h-2.479v-19.63h2.479z"/><path d="m107.718 237.816v-11.778h-2.126v-1.837h2.126v-1.725c0-1.451.379-2.572 1.139-3.365s1.818-1.189 3.177-1.189c.285 0 .573.023.862.069s.61.111.962.195l-.302 1.888c-.151-.033-.333-.063-.547-.088s-.438-.038-.673-.038c-.722 0-1.258.216-1.611.647-.352.433-.528 1.06-.528 1.881v1.725h2.831v1.837h-2.831v11.778z"/><path d="m120.93 238.08c-1.896 0-3.404-.631-4.523-1.894-1.12-1.263-1.68-2.9-1.68-4.913v-.555c0-1.938.577-3.55 1.73-4.838 1.153-1.287 2.519-1.932 4.096-1.932 1.837 0 3.225.554 4.165 1.661.939 1.107 1.409 2.584 1.409 4.429v1.549h-8.833l-.038.062c.025 1.305.356 2.377.994 3.219.637.84 1.531 1.261 2.68 1.261.839 0 1.575-.12 2.208-.358.633-.239 1.181-.568 1.642-.988l.969 1.613c-.487.48-1.128.881-1.925 1.202s-1.761.482-2.894.482zm-.377-12.18c-.831 0-1.54.349-2.126 1.047-.587.697-.948 1.574-1.083 2.627l.025.062h6.279v-.326c0-.969-.26-1.78-.78-2.433-.52-.651-1.292-.977-2.315-.977z"/><path d="m146.939 231.524c0 1.963-.472 3.546-1.416 4.75-.943 1.204-2.241 1.806-3.894 1.806-.897 0-1.679-.174-2.341-.521-.662-.349-1.212-.863-1.648-1.542l-.302 1.8h-2.026v-19.63h2.479v7.625c.428-.604.958-1.065 1.592-1.384s1.374-.479 2.221-.479c1.678 0 2.986.672 3.926 2.014s1.409 3.107 1.409 5.297zm-2.478-.264c0-1.561-.287-2.832-.861-3.818-.575-.986-1.449-1.479-2.624-1.479-.764 0-1.407.187-1.932.56-.524.374-.942.874-1.252 1.504v5.901c.319.672.735 1.195 1.252 1.572.516.378 1.168.566 1.956.566 1.166 0 2.035-.414 2.605-1.245s.855-1.93.855-3.297v-.264z"/><path d="m155.609 238.08c-1.896 0-3.404-.631-4.523-1.894-1.12-1.263-1.68-2.9-1.68-4.913v-.555c0-1.938.576-3.55 1.73-4.838 1.152-1.287 2.518-1.932 4.096-1.932 1.836 0 3.225.554 4.164 1.661s1.41 2.584 1.41 4.429v1.549h-8.834l-.037.062c.025 1.305.355 2.377.994 3.219.637.84 1.53 1.261 2.68 1.261.839 0 1.574-.12 2.208-.358.634-.239 1.181-.568 1.642-.988l.97 1.613c-.487.48-1.128.881-1.925 1.202s-1.762.482-2.895.482zm-.377-12.18c-.831 0-1.54.349-2.127 1.047-.588.697-.948 1.574-1.082 2.627l.025.062h6.278v-.326c0-.969-.261-1.78-.78-2.433-.519-.651-1.29-.977-2.314-.977z"/><path d="m166.267 220.716h-2.479v-2.529h2.479zm0 17.1h-2.479v-13.615h2.479z"/><path d="m185.129 235.802c-.428.729-.977 1.292-1.648 1.686-.67.395-1.446.592-2.327.592-1.485 0-2.643-.474-3.474-1.422-.83-.947-1.245-2.424-1.245-4.43v-8.027h2.479v8.053c0 1.451.213 2.449.641 2.995s1.096.817 2.001.817c.881 0 1.608-.178 2.184-.534.574-.356 1.009-.862 1.302-1.517v-9.814h2.479v13.615h-2.227z"/><path d="m193.345 224.201.176 2.025c.453-.721 1.021-1.281 1.705-1.68s1.463-.598 2.335-.598c1.468 0 2.604.43 3.409 1.29.807.86 1.209 2.188 1.209 3.982v8.595h-2.479v-8.545c0-1.199-.237-2.051-.711-2.554s-1.197-.755-2.171-.755c-.713 0-1.344.172-1.893.516-.551.344-.988.814-1.315 1.409v9.929h-2.479v-13.615h2.214z"/><path d="m213.692 234.191c0-.545-.208-.994-.622-1.346-.416-.353-1.202-.658-2.359-.918-1.653-.361-2.896-.849-3.731-1.465-.835-.615-1.252-1.455-1.252-2.519 0-1.105.47-2.048 1.409-2.827.939-.778 2.164-1.168 3.674-1.168 1.586 0 2.846.407 3.781 1.221.936.814 1.383 1.804 1.341 2.97l-.025.075h-2.366c0-.596-.249-1.13-.748-1.604-.499-.475-1.16-.711-1.982-.711-.881 0-1.535.192-1.963.578-.428.387-.641.852-.641 1.396 0 .537.188.961.565 1.271s1.146.587 2.303.83c1.72.369 2.999.871 3.838 1.504s1.259 1.482 1.259 2.548c0 1.208-.489 2.186-1.467 2.933-.977.746-2.254 1.119-3.831 1.119-1.736 0-3.104-.44-4.103-1.321s-1.472-1.908-1.422-3.083l.025-.075h2.365c.043.876.369 1.517.982 1.922.611.405 1.329.607 2.151.607.881 0 1.571-.179 2.069-.534.501-.356.75-.823.75-1.403z"/></g></svg>