<svg enable-background="new 373.848 93.059 104.518 103.211" height="103.211" viewBox="373.848 93.059 104.518 103.211" width="104.518" xmlns="http://www.w3.org/2000/svg"><path d="m467.956 196.221v-77.292c-8.511 0-15.41-6.898-15.41-15.409 0-.476.029-.943.071-1.408h-78.77v94.109z" fill="#0050ef"/><path d="m467.956 113.93c5.739 0 10.409-4.67 10.409-10.41s-4.67-10.41-10.409-10.41c-5.262 0-9.611 3.927-10.304 9.002-.062.461-.106.929-.106 1.408 0 5.74 4.67 10.41 10.41 10.41z" fill="#0050ef"/><g fill="#fff"><path d="m466.599 102.771h1.299c.55 0 .955-.144 1.221-.432.264-.288.396-.688.396-1.2 0-.464-.132-.837-.396-1.117-.266-.279-.647-.42-1.148-.42-.434 0-.798.127-1.094.38-.295.253-.443.587-.443.998h-2.241l-.016-.047c-.032-.903.312-1.647 1.037-2.233.724-.586 1.621-.879 2.692-.879 1.193 0 2.146.284 2.855.854.71.569 1.063 1.383 1.063 2.438 0 .502-.157.979-.475 1.431-.316.45-.753.804-1.307 1.057.639.228 1.125.576 1.461 1.045.335.47.503 1.017.503 1.64 0 1.057-.384 1.887-1.152 2.492-.769.604-1.752.906-2.95.906-1.071 0-1.991-.284-2.761-.852-.768-.567-1.139-1.369-1.112-2.404l.017-.047h2.241c0 .441.158.805.476 1.091.316.287.718.431 1.204.431.533 0 .954-.147 1.263-.443.311-.295.464-.694.464-1.2 0-.606-.151-1.05-.455-1.332-.305-.282-.752-.423-1.343-.423h-1.299z"/><path d="m443.571 147.237c-1.879-1.794-4.277-2.194-6.181-2.511l-.746-.126c-.196-.051-.434-.107-.674-.164-2.453-.569-2.455-.843-2.455-1.063-.006-.897.328-1.845.729-2.979.542-1.52 1.156-3.241 1.052-5.356-.19-3.617-1.776-6.809-4.245-8.551-1.146-.896-2.611-1.408-4.031-1.408-2.333 0-4.226 1.376-4.927 3.563-.447 1.328-.374 2.54-.309 3.579l.014.281c.008.137.017.278.021.451.043 1.08-.074 1.926-.389 2.773-.637 1.8-2.004 3.584-3.143 4.96l-.687.858c-.863 1.088-1.753 2.213-2.697 3.068-.17.122-.393.196-.892.303-.258.03-.483.087-.68.144-.359-.025-.73-.048-1.113-.065-.938-1.584-2.66-2.65-4.637-2.65h-3.179-1.979-.805c-2.978 0-5.392 2.414-5.392 5.394v16.775c0 2.979 2.414 5.393 5.392 5.393h.805 1.979 3.179c1.818 0 3.425-.903 4.4-2.284.021-.001.04-.002.059-.003.452-.028.881-.051 1.278-.051h.015c.391.069.763.11 1.121.148l.108.012c.293.032.594.065.906.12.143.104.388.332.567.501.357.342.665.619 1.047.896.25.172.494.351.746.535.803.59 1.803 1.322 3.004 1.859 1.411.605 2.9.802 4.286.984.58.072 1.141.144 1.649.248l1.267.146c1.03.117 2.095.239 3.211.239.832 0 1.568-.067 2.256-.208l.149-.036c2.396-.684 4.128-2.511 4.604-4.737.99-.648 1.845-1.588 2.43-2.698.503-.957.774-1.979.805-2.972 1.684-1.531 2.607-3.726 2.479-5.872.761-.854 1.279-1.958 1.497-3.213.403-2.325-.316-4.724-1.894-6.283zm-39.164 18.711h-1.978-.806c-.792 0-1.437-.646-1.437-1.438v-16.774c0-.792.645-1.438 1.437-1.438h.806 1.978 1.271 1.908c.792 0 1.438.646 1.438 1.438v1.416 14.505.854c0 .792-.646 1.438-1.438 1.438h-2.699zm37.165-13.096c-.114.667-.418 1.214-.83 1.497l-1.148.789.356 1.348c.321 1.224-.361 2.754-1.589 3.559l-1.121.736.268 1.314c.099.475-.018 1.072-.316 1.638-.354.676-.915 1.216-1.498 1.444l-1.253.494v1.346c0 .986-.704 1.832-1.798 2.17-1.087.204-2.647.07-4.222-.107l-.947-.104c-.618-.122-1.235-.202-1.902-.284-1.163-.153-2.263-.299-3.145-.678-.789-.352-1.565-.922-2.248-1.423-.285-.209-.563-.412-.807-.578-.173-.125-.392-.329-.641-.564-.604-.565-1.354-1.27-2.379-1.462-.481-.093-.936-.146-1.354-.19l-.108-.012c-.364-.04-.679-.074-.964-.133l-.197-.042h-.404c-.11 0-.229.006-.345.009v-14.617c.126.009.252.016.378.025l.15.006c.335 0 .625-.078.867-.156.038-.011.078-.026.056-.028l.282-.037c.863-.179 1.782-.412 2.68-1.119l.094-.078c1.218-1.088 2.234-2.373 3.219-3.613l.652-.816c1.329-1.604 2.962-3.753 3.794-6.11.487-1.312.686-2.671.622-4.247-.003-.186-.013-.368-.023-.547l-.015-.271c-.057-.935-.082-1.538.117-2.131.189-.592.541-.845 1.169-.845.544 0 1.163.224 1.616.586l.105.079c1.502 1.042 2.477 3.117 2.604 5.54.064 1.324-.367 2.54-.845 3.875-.468 1.323-.949 2.693-.941 4.274.011 3.623 3.458 4.423 5.517 4.901.233.054.461.109.64.157l1.001.177c1.536.256 3.126.52 4.099 1.449.619.613.93 1.758.754 2.779z"/></g></svg>