<svg enable-background="new 373.848 93.059 104.518 103.211" height="103.211" viewBox="373.848 93.059 104.518 103.211" width="104.518" xmlns="http://www.w3.org/2000/svg"><path d="m467.956 196.221v-77.292c-8.511 0-15.409-6.898-15.409-15.409 0-.476.028-.943.071-1.408h-78.771v94.109z" fill="#0050ef"/><path d="m467.956 113.93c5.739 0 10.409-4.67 10.409-10.41s-4.67-10.41-10.409-10.41c-5.262 0-9.612 3.927-10.304 9.002-.062.461-.105.929-.105 1.408 0 5.74 4.67 10.41 10.409 10.41z" fill="#0050ef"/><g fill="#fff"><path d="m471.963 109.687h-7.873v-1.513l3.729-4c.539-.618.921-1.139 1.148-1.564s.34-.82.34-1.184c0-.486-.13-.883-.392-1.192s-.633-.463-1.113-.463c-.533 0-.938.181-1.215.543-.277.361-.416.843-.416 1.445h-2.25l-.017-.047c-.025-1.041.315-1.921 1.025-2.642.71-.722 1.667-1.082 2.871-1.082 1.188 0 2.122.31 2.8.928.678.617 1.018 1.44 1.018 2.471 0 .697-.19 1.34-.573 1.928-.384.59-1.016 1.361-1.897 2.317l-2.051 2.233.016.039h4.848v1.782h.002z"/><path d="m400.832 173.396c-1.044 0-2.055-.434-2.772-1.191-1.03-1.09-1.331-2.687-.766-4.071l2.446-5.992c-4.206-4.061-6.503-9.19-6.503-14.59 0-12.466 12.411-22.608 27.665-22.608s27.666 10.143 27.666 22.608-12.412 22.607-27.666 22.607c-2.568 0-5.117-.29-7.583-.86l-11.239 3.889c-.402.136-.822.208-1.248.208zm20.07-44.399c-13.02 0-23.609 8.323-23.609 18.554 0 4.647 2.193 9.089 6.18 12.505.662.567.888 1.497.559 2.306l-2.785 6.822 11.309-3.913c.374-.129.774-.147 1.158-.05 2.328.585 4.746.882 7.19.882 13.02 0 23.609-8.323 23.609-18.553 0-10.231-10.591-18.553-23.611-18.553z"/></g></svg>