<svg enable-background="new 0 0 252.066 252.066" height="252.066" viewBox="0 0 252.066 252.066" width="252.066" xmlns="http://www.w3.org/2000/svg"><g fill="#fff"><path d="m126.033 59.4c-36.737 0-66.634 29.896-66.634 66.633 0 36.752 29.896 66.633 66.634 66.633 36.751 0 66.634-29.881 66.634-66.633 0-36.737-29.883-66.633-66.634-66.633zm0 118.459c-28.581 0-51.826-23.251-51.826-51.826 0-28.572 23.246-51.826 51.826-51.826 28.576 0 51.825 23.254 51.825 51.826 0 28.575-23.249 51.826-51.825 51.826z"/><path d="m123.502 143.662c-3.985 0-8.026 2.747-8.026 7.986 0 5.196 4.04 7.92 8.026 7.92 3.987 0 8.025-2.719 8.025-7.92 0-5.239-4.041-7.986-8.025-7.986z"/><path d="m125.983 92.492c-14.881 0-24.547 7.816-24.634 19.919l-.011.936h13.744l.021-.91c.079-5.117 5.568-7.883 10.704-7.883 4.969 0 10.883 1.304 10.883 7.516 0 3.313-2.377 4.503-6.267 6.146-1.104.479-2.258.973-3.364 1.561-4.526 2.394-10.158 5.362-10.263 18.22v1.459h13.57v-1.371c0-3.921.862-6.088 2.965-7.494 1.14-.754 2.675-1.438 4.3-2.156 5.521-2.442 13.074-5.792 13.074-16.253.104-5.205-1.495-9.528-4.768-12.854-4.302-4.414-11.392-6.836-19.954-6.836z"/><path d="m82.03 230.203v7.354h-2.479v-18.319h7.009c1.954 0 3.479.503 4.562 1.51 1.079 1.006 1.617 2.332 1.617 3.979 0 1.67-.538 3-1.617 3.989-1.082.994-2.604 1.491-4.562 1.491zm0-1.95h4.53c1.241 0 2.169-.333 2.781-.998.612-.666.919-1.506.919-2.52 0-1.013-.309-1.858-.926-2.537-.616-.678-1.541-1.018-2.774-1.018h-4.53z"/><path d="m102.039 226.126-1.271-.07c-.654 0-1.205.15-1.654.467-.443.311-.795.746-1.032 1.309v9.729h-2.479v-13.62h2.215l.239 1.987c.386-.704.862-1.259 1.429-1.647.567-.395 1.222-.592 1.956-.592.188 0 .36.016.528.045s.307.061.416.094z"/><path d="m103.598 230.618c0-2.013.545-3.672 1.635-4.977 1.097-1.311 2.571-1.957 4.442-1.957 1.888 0 3.378.646 4.474 1.945 1.1 1.307 1.646 2.967 1.646 4.982v.277c0 2.023-.546 3.688-1.642 4.979-1.091 1.292-2.57 1.938-4.449 1.938-1.885 0-3.365-.647-4.463-1.943-1.098-1.297-1.645-2.955-1.645-4.977zm2.48.27c0 1.438.304 2.632.906 3.563.607.938 1.518 1.408 2.717 1.408 1.184 0 2.075-.47 2.688-1.408.612-.938.918-2.128.918-3.563v-.276c0-1.424-.308-2.609-.924-3.557-.617-.947-1.521-1.426-2.712-1.426-1.187 0-2.079.479-2.688 1.426-.604.941-.906 2.133-.906 3.557z"/><path d="m130.451 231.26c0 1.964-.478 3.547-1.416 4.75-.943 1.198-2.241 1.806-3.896 1.806-.896 0-1.679-.174-2.341-.521s-1.212-.856-1.648-1.541l-.302 1.804h-2.026v-19.634h2.479v7.625c.428-.604.958-1.062 1.592-1.385.634-.312 1.374-.479 2.221-.479 1.684 0 2.986.672 3.932 2.014.938 1.343 1.409 3.108 1.409 5.298zm-2.48-.264c0-1.561-.287-2.833-.861-3.814-.569-.984-1.443-1.479-2.624-1.479-.764 0-1.401.188-1.932.562-.525.368-.942.873-1.252 1.505v5.896c.319.672.735 1.195 1.252 1.573.516.378 1.168.565 1.956.565 1.166 0 2.035-.414 2.604-1.244.57-.831.855-1.936.855-3.298z"/><path d="m136.15 237.552h-2.479v-19.632h2.479z"/><path d="m145.612 237.815c-1.896 0-3.397-.631-4.521-1.896-1.119-1.264-1.68-2.896-1.68-4.914v-.554c0-1.938.57-3.55 1.729-4.839 1.153-1.287 2.521-1.932 4.096-1.932 1.84 0 3.229.555 4.165 1.659.939 1.104 1.409 2.584 1.409 4.432v1.548h-8.834l-.037.062c.025 1.311.356 2.384.994 3.225.637.841 1.531 1.262 2.68 1.262.846 0 1.575-.12 2.209-.359.639-.232 1.186-.562 1.646-.982l.97 1.607c-.483.48-1.129.888-1.926 1.203-.801.318-1.766.478-2.9.478zm-.377-12.18c-.83 0-1.539.351-2.127 1.048-.587.692-.941 1.568-1.082 2.627l.025.062h6.279v-.326c0-.97-.267-1.774-.781-2.433-.519-.651-1.289-.978-2.314-.978z"/><path d="m155.805 223.936.176 1.787c.444-.646 1.008-1.146 1.691-1.504.685-.355 1.479-.535 2.385-.535s1.688.211 2.334.63c.65.419 1.139 1.049 1.467 1.888.434-.771.994-1.385 1.698-1.838.705-.453 1.526-.68 2.466-.68 1.391 0 2.479.477 3.285 1.429.805.952 1.207 2.385 1.207 4.298v8.146h-2.479v-8.166c0-1.348-.23-2.293-.691-2.854-.462-.558-1.15-.837-2.064-.837-.848 0-1.527.294-2.057.881-.521.588-.833 1.33-.926 2.229v.101 8.646h-2.49v-8.166c0-1.275-.238-2.209-.711-2.807-.475-.591-1.156-.887-2.045-.887-.756 0-1.376.156-1.863.466-.48.312-.854.747-1.119 1.312v10.079h-2.478v-13.614h2.214z"/></g></svg>