<svg enable-background="new 0 0 252.068 252.066" height="252.066" viewBox="0 0 252.068 252.066" width="252.068" xmlns="http://www.w3.org/2000/svg"><g fill="#fff"><path d="m67.14 219.407h-6.295v17.501h-2.65v-17.501h-6.282v-2.085h15.227z"/><path d="m74.365 237.19c-2.027 0-3.639-.675-4.836-2.024s-1.796-3.101-1.796-5.253v-.592c0-2.071.617-3.796 1.85-5.173 1.233-1.376 2.692-2.064 4.378-2.064 1.964 0 3.448.592 4.453 1.775s1.507 2.763 1.507 4.735v1.654h-9.443l-.041.067c.027 1.396.381 2.542 1.062 3.441.682.898 1.637 1.348 2.866 1.348.896 0 1.684-.128 2.361-.383.677-.256 1.262-.607 1.755-1.057l1.036 1.724c-.52.515-1.206.943-2.058 1.286-.853.345-1.884.516-3.094.516zm-.404-13.021c-.888 0-1.646.373-2.273 1.119-.628.747-1.014 1.683-1.157 2.81l.027.066h6.712v-.349c0-1.036-.278-1.903-.834-2.601s-1.381-1.045-2.475-1.045z"/><path d="m91.839 236.908c-.089-.439-.159-.827-.208-1.164-.049-.336-.079-.674-.087-1.016-.493.7-1.137 1.285-1.93 1.756-.794.471-1.648.706-2.562.706-1.516 0-2.67-.388-3.464-1.163-.793-.775-1.19-1.846-1.19-3.209 0-1.39.563-2.477 1.688-3.262s2.652-1.177 4.581-1.177h2.878v-1.439c0-.853-.26-1.527-.78-2.024-.52-.498-1.255-.747-2.206-.747-.852 0-1.545.218-2.078.652-.534.436-.801.958-.801 1.567h-2.529l-.027-.081c-.054-1.058.446-2.026 1.5-2.905s2.415-1.318 4.083-1.318c1.65 0 2.978.419 3.982 1.258s1.507 2.047 1.507 3.625v7.009c0 .521.027 1.022.081 1.507s.152.96.296 1.426h-2.734zm-4.399-1.95c.959 0 1.825-.246 2.596-.738.771-.491 1.273-1.055 1.506-1.69v-2.36h-2.972c-1.067 0-1.922.269-2.563.805s-.961 1.167-.961 1.892c0 .644.202 1.153.605 1.529.403.373 1 .562 1.789.562z"/><path d="m100.407 222.352.188 1.911c.475-.691 1.078-1.227 1.81-1.608.73-.381 1.581-.571 2.549-.571.969 0 1.8.225 2.496.673.695.448 1.217 1.121 1.567 2.018.458-.825 1.063-1.479 1.816-1.964.753-.484 1.632-.727 2.637-.727 1.479 0 2.65.509 3.511 1.526.861 1.019 1.292 2.55 1.292 4.595v8.703h-2.65v-8.73c0-1.435-.247-2.45-.74-3.047s-1.229-.895-2.206-.895c-.906 0-1.639.314-2.199.941-.561.628-.89 1.422-.989 2.381v.108 9.241h-2.664v-8.73c0-1.363-.253-2.36-.76-2.993-.507-.632-1.235-.948-2.186-.948-.807 0-1.471.166-1.991.498-.52.331-.919.798-1.197 1.398v10.775h-2.65v-14.556h2.366z"/><path d="m126.975 232.617.229 1.022h.081l.255-1.022 3.35-10.265h2.705l-5.354 14.556h-2.004l-5.421-14.556h2.717z"/><path d="m138.841 218.627h-2.65v-2.704h2.65zm0 18.281h-2.65v-14.556h2.65z"/><path d="m148.956 237.19c-2.027 0-3.639-.675-4.836-2.024s-1.795-3.101-1.795-5.253v-.592c0-2.071.615-3.796 1.85-5.173 1.232-1.376 2.691-2.064 4.379-2.064 1.963 0 3.447.592 4.451 1.775s1.508 2.763 1.508 4.735v1.654h-9.443l-.041.067c.027 1.396.381 2.542 1.062 3.441.682.898 1.637 1.348 2.865 1.348.896 0 1.684-.128 2.361-.383.678-.256 1.262-.607 1.756-1.057l1.035 1.724c-.52.515-1.207.943-2.059 1.286-.851.345-1.882.516-3.093.516zm-.403-13.021c-.889 0-1.646.373-2.273 1.119-.629.747-1.014 1.683-1.158 2.81l.027.066h6.713v-.349c0-1.036-.279-1.903-.834-2.601-.557-.697-1.381-1.045-2.475-1.045z"/><path d="m161.212 231.608.309 1.762h.082l.377-1.762 2.904-9.256h2.127l2.918 9.256.418 1.964h.08l.391-1.964 2.287-9.256h2.635l-4.223 14.556h-2.139l-2.812-8.865-.605-2.475-.08.013-.578 2.462-2.771 8.865h-2.139l-4.225-14.556h2.637z"/><path d="m184.376 237.19c-2.027 0-3.639-.675-4.836-2.024s-1.795-3.101-1.795-5.253v-.592c0-2.071.615-3.796 1.85-5.173 1.232-1.376 2.691-2.064 4.379-2.064 1.963 0 3.447.592 4.451 1.775s1.508 2.763 1.508 4.735v1.654h-9.443l-.041.067c.027 1.396.381 2.542 1.062 3.441.682.898 1.637 1.348 2.865 1.348.896 0 1.684-.128 2.361-.383.678-.256 1.262-.607 1.756-1.057l1.035 1.724c-.52.515-1.207.943-2.059 1.286-.851.345-1.882.516-3.093.516zm-.403-13.021c-.889 0-1.646.373-2.273 1.119-.629.747-1.014 1.683-1.158 2.81l.027.066h6.713v-.349c0-1.036-.279-1.903-.834-2.601-.557-.697-1.381-1.045-2.475-1.045z"/><path d="m199.792 224.693-1.359-.08c-.699 0-1.289.166-1.768.497-.48.332-.85.799-1.109 1.399v10.398h-2.65v-14.556h2.367l.256 2.126c.412-.754.922-1.341 1.525-1.763.605-.421 1.303-.632 2.092-.632.197 0 .387.016.566.047s.326.065.443.101z"/><path d="m178.87 59.24h-105.827c-7.677.097-13.84 6.288-13.803 13.867v105.852c-.037 7.609 6.173 13.812 13.88 13.867h105.828c7.709-.055 13.917-6.26 13.88-13.867v-105.852c.037-7.623-6.193-13.832-13.919-13.867-.013 0-.024 0-.039 0zm-52.888 122.029c-30.684-.234-55.375-24.953-55.17-55.236-.205-30.282 24.486-55.001 55.17-55.235 30.701.213 55.414 24.939 55.209 55.235.204 30.297-24.509 55.023-55.209 55.236z"/><path d="m177.2 126.033-38.291-17.702 3.077 11.342h-31.986l3.076-11.342-38.289 17.715 38.315 17.703-3.077-11.342h31.989l-3.076 11.342 38.263-17.703"/></g></svg>