<svg enable-background="new 0 0 252.066 252.066" height="252.066" viewBox="0 0 252.066 252.066" width="252.066" xmlns="http://www.w3.org/2000/svg"><g fill="#fff"><path d="m81.959 122.927c0-2.03-1.646-3.703-3.705-3.703h-12.979c-2.031 0-3.705 1.645-3.705 3.703 0 2.031 1.647 3.705 3.705 3.705h12.979c2.058 0 3.705-1.647 3.705-3.705z"/><path d="m159.008 93.182c.935 0 1.896-.356 2.607-1.07l9.193-9.191c1.453-1.455 1.453-3.788 0-5.241-1.455-1.456-3.787-1.456-5.241 0l-9.192 9.191c-1.454 1.455-1.454 3.787 0 5.241.74.714 1.675 1.07 2.633 1.07z"/><path d="m125.56 79.325c2.031 0 3.705-1.646 3.705-3.705v-12.978c0-2.031-1.646-3.705-3.705-3.705s-3.704 1.646-3.704 3.705v12.979c0 2.058 1.674 3.704 3.704 3.704z"/><path d="m89.505 153.769-9.192 9.191c-1.456 1.455-1.456 3.787 0 5.24.713.715 1.673 1.072 2.605 1.072.935 0 1.895-.357 2.607-1.072l9.193-9.19c1.453-1.454 1.453-3.788 0-5.241-1.427-1.455-3.787-1.455-5.213 0z"/><path d="m89.505 92.085c.713.713 1.674 1.071 2.606 1.071.934 0 1.893-.358 2.607-1.071 1.453-1.455 1.453-3.786 0-5.241l-9.193-9.192c-1.453-1.454-3.786-1.454-5.241 0-1.454 1.455-1.454 3.788 0 5.241z"/><path d="m185.845 119.223h-12.979c-2.03 0-3.704 1.645-3.704 3.703 0 2.031 1.646 3.705 3.704 3.705h12.979c2.029 0 3.705-1.646 3.705-3.705.001-2.029-1.647-3.703-3.705-3.703z"/><path d="m137.003 171.686h-22.912c-2.086 0-3.759 1.675-3.759 3.76v3.896c0 3.129 2.277 5.681 5.268 6.147l.932 3.539c.523 1.921 2.252 3.266 4.255 3.266h9.521c2.004 0 3.733-1.345 4.254-3.266l.961-3.539c2.962-.439 5.24-3.019 5.24-6.119v-3.896c-.002-2.087-1.675-3.758-3.76-3.788z"/><path d="m161.615 153.769c-1.453-1.455-3.786-1.455-5.24 0-1.454 1.453-1.454 3.787 0 5.241l9.192 9.19c.714.715 1.674 1.072 2.607 1.072s1.893-.357 2.606-1.072c1.454-1.453 1.454-3.785 0-5.24z"/><path d="m125.342 90.109c-18.275.138-32.819 14.926-32.627 33.203.082 8.697 3.566 16.601 9.165 22.417 4.336 4.474 7.161 10.291 8.122 16.409.384 2.635 2.688 4.556 5.351 4.556h20.387c2.69 0 4.968-1.948 5.38-4.582.933-6.119 3.731-11.854 8.067-16.354 5.707-5.899 9.219-13.938 9.219-22.802-.001-18.221-14.817-32.985-33.064-32.847z"/><path d="m101.427 219.234v1.951h5.875v16.368h2.477v-16.368h5.895l-.009-1.951z"/><path d="m118.1 223.94h2.479v13.613h-2.479z"/><path d="m118.1 217.93h2.479v2.524h-2.479z"/><path d="m134.593 225.687c-.939-1.338-2.248-2.008-3.936-2.008-.876 0-1.648.174-2.312.518-.662.346-1.221.844-1.66 1.497l-.396-1.762h-1.895v18.849h2.479v-6.654c.443.568.982.989 1.615 1.27.635.277 1.369.423 2.209.423 1.659 0 2.951-.608 3.889-1.807.938-1.204 1.408-2.786 1.408-4.75l-.003-.271c0-2.201-.46-3.966-1.398-5.305zm-1.977 8.885c-.604.857-1.492 1.288-2.668 1.288-.737 0-1.346-.159-1.851-.472-.504-.313-.915-.751-1.227-1.312v-6.565c.317-.561.723-1.009 1.227-1.325.505-.322 1.105-.483 1.818-.483 1.185 0 2.082.496 2.689 1.489.601.992.911 2.26.911 3.802l.006.257c.001 1.355-.302 2.467-.905 3.321z"/><path d="m149.238 225.687c-.938-1.338-2.246-2.008-3.935-2.008-.875 0-1.649.174-2.313.518-.662.346-1.217.844-1.66 1.497l-.391-1.762h-1.9v18.849h2.48v-6.654c.438.568.978.989 1.614 1.27.636.277 1.365.423 2.209.423 1.655 0 2.95-.608 3.89-1.807.933-1.204 1.407-2.786 1.407-4.75v-.271c0-2.201-.462-3.966-1.401-5.305zm-1.076 5.563c0 1.356-.3 2.468-.904 3.322-.607.857-1.49 1.288-2.67 1.288-.73 0-1.346-.159-1.85-.472s-.91-.751-1.222-1.312v-6.565c.312-.561.718-1.009 1.222-1.325.504-.322 1.11-.483 1.824-.483 1.184 0 2.084.496 2.688 1.489.605.992.912 2.26.912 3.802z"/></g></svg>